<svg width="186" height="38" viewBox="0 0 186 38" fill="none" xmlns="http://www.w3.org/2000/svg">
<mask id="path-1-inside-1_5789_109" fill="white">
<path d="M7.19287 32.5097C9.24017 32.7166 10.038 33.0794 11.6335 33.0722C17.3055 33.0577 21.4511 28.627 21.4511 22.4001C21.4511 18.3468 19.5568 15.5963 16.9084 15.5963C14.2601 15.5963 10.1108 18.3904 7.19287 23.2238V32.5097ZM12.4423 37.9964C9.32396 37.9964 8.73017 37.2779 3.85599 37.2779H0.810547V3.68316L7.08359 0L7.06173 16.126C10.2092 12.6497 14.1617 10.6757 18.0195 10.6757C23.9902 10.6757 27.9755 15.4257 27.9755 22.5053C27.9755 31.2252 22.0121 37.9927 12.4423 37.9927V37.9964Z"/>
<path d="M41.9532 33.0831C44.6089 33.0831 48.6962 30.3252 51.6069 25.5462V16.1623C49.596 15.9519 48.7909 15.5999 47.1735 15.6035C41.5562 15.6144 37.4069 20.0414 37.4069 26.2683C37.4069 30.3216 39.3049 33.0795 41.9532 33.0795V33.0831ZM52.9183 37.9238C52.4411 36.4469 52.0841 34.6108 51.9165 32.4226C48.7508 35.9824 44.7546 38 40.8458 38C34.8751 38 30.8315 33.25 30.8279 26.232C30.8206 17.4433 36.8131 10.6793 46.3138 10.6793C49.4867 10.6793 50.1388 11.4087 55.0093 11.3978H58.0511V27.9267C58.0511 31.5445 58.2078 33.152 58.5283 34.6217L52.9219 37.9165L52.9183 37.9238Z"/>
<path d="M68.63 31.4719C70.4333 32.4335 72.9541 33.0359 75.6535 33.1157C79.0632 33.2246 81.3583 32.4843 81.3583 30.5901C81.3583 29.1459 80.1087 28.1226 77.6389 27.542L72.67 26.3772C65.3733 24.6681 62.4663 22.3457 62.4663 18.3541C62.4663 12.9037 67.9379 10.643 74.4951 10.643C77.8902 10.643 81.0595 11.2382 84.3126 12.8638L78.6807 16.1805C77.3292 15.7886 76.0506 15.5854 74.71 15.5382C71.2493 15.4257 69.0271 16.4853 69.0271 18.0747C69.0271 19.2976 70.3495 20.2809 72.5206 20.8035L77.3766 21.9792C85.0813 23.8335 87.9154 26.6457 87.9154 30.3615C87.9154 35.3655 82.6916 37.9855 75.7919 37.9855C71.5589 37.9855 66.8705 36.9985 63.3551 34.5709L68.63 31.4719Z"/>
<path d="M111.652 21.9574C111.452 18.1327 108.767 15.5346 104.629 15.5346C100.491 15.5346 97.6747 18.071 97.1319 21.9574H111.652ZM105.758 37.9528C96.6256 37.9528 90.4145 32.4408 90.4145 24.2907C90.4145 16.1406 96.4106 10.6938 104.56 10.6938C113.503 10.6938 118.986 17.6537 117.346 26.5151H97.2121C98.1191 30.4341 101.693 33.0867 106.487 33.0867C107.915 33.0867 109.248 32.8545 110.552 32.4553L115.867 35.5796C112.545 37.1727 109.157 37.9492 105.758 37.9492V37.9528Z"/>
<path d="M133.018 21.1917H137.138V21.8268H134.085V23.8335H137.138V24.4685H134.085V26.6602H137.138V27.2953H133.018V21.1917Z"/>
<path d="M140.537 24.2181L138.544 21.1917H139.761L140.854 22.9807C140.996 23.2093 141.131 23.4416 141.258 23.6738H141.473C141.604 23.4379 141.739 23.2093 141.877 22.9807L142.97 21.1917H144.187L142.194 24.2181L144.187 27.2953H142.97L141.907 25.5172C141.761 25.2704 141.608 25.0237 141.473 24.7769H141.258C141.123 25.0237 140.97 25.2704 140.825 25.5172L139.761 27.2953H138.544L140.537 24.2181Z"/>
<path d="M145.426 22.5053C145.426 21.5256 146.125 21.1409 148.085 21.1409C150.045 21.1409 150.73 21.5256 150.73 22.5053V23.4089H149.659V21.8304H146.493V26.6639H149.659V25.0854H150.73V25.9889C150.73 26.9687 150.041 27.3533 148.085 27.3533C146.129 27.3533 145.426 26.9687 145.426 25.9889V22.5053Z"/>
<path d="M152.642 21.1917H153.713V23.8081H156.766V21.1917H157.837V27.2953H156.766V24.4431H153.713V27.2953H152.642V21.1917Z"/>
<path d="M163.851 25.9635H160.846L160.405 27.2916H159.239L161.356 21.1881H163.338L165.454 27.2916H164.288L163.848 25.9635H163.851ZM163.644 25.3285L162.726 22.5307C162.645 22.2985 162.58 22.059 162.507 21.8231H162.19C162.117 22.0554 162.048 22.2949 161.972 22.5307L161.054 25.3285H163.644Z"/>
<path d="M166.86 21.1917H168.798L170.696 25.3212C170.9 25.7676 171.097 26.2103 171.286 26.6602H171.523V21.1917H172.503V27.2953H170.565L168.667 23.1658C168.463 22.7194 168.266 22.2767 168.077 21.8268H167.84V27.2953H166.86V21.1917Z"/>
<path d="M174.416 25.9708V22.509C174.416 21.522 175.115 21.1373 177.075 21.1373C179.035 21.1373 179.72 21.522 179.72 22.509V23.1621H178.649V21.8231H175.483V26.6566H178.649V24.8749H177.071V24.2399H179.716V27.2916H179.119L178.871 26.8417C178.408 27.1937 177.723 27.3424 176.9 27.3424C175.199 27.3424 174.412 26.9578 174.412 25.9708H174.416Z"/>
<path d="M181.69 21.1917H185.811V21.8268H182.758V23.8335H185.811V24.4685H182.758V26.6602H185.811V27.2953H181.69V21.1917Z"/>
</mask>
<path d="M7.19287 32.5097C9.24017 32.7166 10.038 33.0794 11.6335 33.0722C17.3055 33.0577 21.4511 28.627 21.4511 22.4001C21.4511 18.3468 19.5568 15.5963 16.9084 15.5963C14.2601 15.5963 10.1108 18.3904 7.19287 23.2238V32.5097ZM12.4423 37.9964C9.32396 37.9964 8.73017 37.2779 3.85599 37.2779H0.810547V3.68316L7.08359 0L7.06173 16.126C10.2092 12.6497 14.1617 10.6757 18.0195 10.6757C23.9902 10.6757 27.9755 15.4257 27.9755 22.5053C27.9755 31.2252 22.0121 37.9927 12.4423 37.9927V37.9964Z" fill="#CCF728"/>
<path d="M41.9532 33.0831C44.6089 33.0831 48.6962 30.3252 51.6069 25.5462V16.1623C49.596 15.9519 48.7909 15.5999 47.1735 15.6035C41.5562 15.6144 37.4069 20.0414 37.4069 26.2683C37.4069 30.3216 39.3049 33.0795 41.9532 33.0795V33.0831ZM52.9183 37.9238C52.4411 36.4469 52.0841 34.6108 51.9165 32.4226C48.7508 35.9824 44.7546 38 40.8458 38C34.8751 38 30.8315 33.25 30.8279 26.232C30.8206 17.4433 36.8131 10.6793 46.3138 10.6793C49.4867 10.6793 50.1388 11.4087 55.0093 11.3978H58.0511V27.9267C58.0511 31.5445 58.2078 33.152 58.5283 34.6217L52.9219 37.9165L52.9183 37.9238Z" fill="#CCF728"/>
<path d="M68.63 31.4719C70.4333 32.4335 72.9541 33.0359 75.6535 33.1157C79.0632 33.2246 81.3583 32.4843 81.3583 30.5901C81.3583 29.1459 80.1087 28.1226 77.6389 27.542L72.67 26.3772C65.3733 24.6681 62.4663 22.3457 62.4663 18.3541C62.4663 12.9037 67.9379 10.643 74.4951 10.643C77.8902 10.643 81.0595 11.2382 84.3126 12.8638L78.6807 16.1805C77.3292 15.7886 76.0506 15.5854 74.71 15.5382C71.2493 15.4257 69.0271 16.4853 69.0271 18.0747C69.0271 19.2976 70.3495 20.2809 72.5206 20.8035L77.3766 21.9792C85.0813 23.8335 87.9154 26.6457 87.9154 30.3615C87.9154 35.3655 82.6916 37.9855 75.7919 37.9855C71.5589 37.9855 66.8705 36.9985 63.3551 34.5709L68.63 31.4719Z" fill="#CCF728"/>
<path d="M111.652 21.9574C111.452 18.1327 108.767 15.5346 104.629 15.5346C100.491 15.5346 97.6747 18.071 97.1319 21.9574H111.652ZM105.758 37.9528C96.6256 37.9528 90.4145 32.4408 90.4145 24.2907C90.4145 16.1406 96.4106 10.6938 104.56 10.6938C113.503 10.6938 118.986 17.6537 117.346 26.5151H97.2121C98.1191 30.4341 101.693 33.0867 106.487 33.0867C107.915 33.0867 109.248 32.8545 110.552 32.4553L115.867 35.5796C112.545 37.1727 109.157 37.9492 105.758 37.9492V37.9528Z" fill="#CCF728"/>
<path d="M133.018 21.1917H137.138V21.8268H134.085V23.8335H137.138V24.4685H134.085V26.6602H137.138V27.2953H133.018V21.1917Z" fill="#CCF728"/>
<path d="M140.537 24.2181L138.544 21.1917H139.761L140.854 22.9807C140.996 23.2093 141.131 23.4416 141.258 23.6738H141.473C141.604 23.4379 141.739 23.2093 141.877 22.9807L142.97 21.1917H144.187L142.194 24.2181L144.187 27.2953H142.97L141.907 25.5172C141.761 25.2704 141.608 25.0237 141.473 24.7769H141.258C141.123 25.0237 140.97 25.2704 140.825 25.5172L139.761 27.2953H138.544L140.537 24.2181Z" fill="#CCF728"/>
<path d="M145.426 22.5053C145.426 21.5256 146.125 21.1409 148.085 21.1409C150.045 21.1409 150.73 21.5256 150.73 22.5053V23.4089H149.659V21.8304H146.493V26.6639H149.659V25.0854H150.73V25.9889C150.73 26.9687 150.041 27.3533 148.085 27.3533C146.129 27.3533 145.426 26.9687 145.426 25.9889V22.5053Z" fill="#CCF728"/>
<path d="M152.642 21.1917H153.713V23.8081H156.766V21.1917H157.837V27.2953H156.766V24.4431H153.713V27.2953H152.642V21.1917Z" fill="#CCF728"/>
<path d="M163.851 25.9635H160.846L160.405 27.2916H159.239L161.356 21.1881H163.338L165.454 27.2916H164.288L163.848 25.9635H163.851ZM163.644 25.3285L162.726 22.5307C162.645 22.2985 162.58 22.059 162.507 21.8231H162.19C162.117 22.0554 162.048 22.2949 161.972 22.5307L161.054 25.3285H163.644Z" fill="#CCF728"/>
<path d="M166.86 21.1917H168.798L170.696 25.3212C170.9 25.7676 171.097 26.2103 171.286 26.6602H171.523V21.1917H172.503V27.2953H170.565L168.667 23.1658C168.463 22.7194 168.266 22.2767 168.077 21.8268H167.84V27.2953H166.86V21.1917Z" fill="#CCF728"/>
<path d="M174.416 25.9708V22.509C174.416 21.522 175.115 21.1373 177.075 21.1373C179.035 21.1373 179.72 21.522 179.72 22.509V23.1621H178.649V21.8231H175.483V26.6566H178.649V24.8749H177.071V24.2399H179.716V27.2916H179.119L178.871 26.8417C178.408 27.1937 177.723 27.3424 176.9 27.3424C175.199 27.3424 174.412 26.9578 174.412 25.9708H174.416Z" fill="#CCF728"/>
<path d="M181.69 21.1917H185.811V21.8268H182.758V23.8335H185.811V24.4685H182.758V26.6602H185.811V27.2953H181.69V21.1917Z" fill="#CCF728"/>
<path d="M7.19287 32.5097C9.24017 32.7166 10.038 33.0794 11.6335 33.0722C17.3055 33.0577 21.4511 28.627 21.4511 22.4001C21.4511 18.3468 19.5568 15.5963 16.9084 15.5963C14.2601 15.5963 10.1108 18.3904 7.19287 23.2238V32.5097ZM12.4423 37.9964C9.32396 37.9964 8.73017 37.2779 3.85599 37.2779H0.810547V3.68316L7.08359 0L7.06173 16.126C10.2092 12.6497 14.1617 10.6757 18.0195 10.6757C23.9902 10.6757 27.9755 15.4257 27.9755 22.5053C27.9755 31.2252 22.0121 37.9927 12.4423 37.9927V37.9964Z" stroke="#CCF728" stroke-width="0.631374" mask="url(#path-1-inside-1_5789_109)"/>
<path d="M41.9532 33.0831C44.6089 33.0831 48.6962 30.3252 51.6069 25.5462V16.1623C49.596 15.9519 48.7909 15.5999 47.1735 15.6035C41.5562 15.6144 37.4069 20.0414 37.4069 26.2683C37.4069 30.3216 39.3049 33.0795 41.9532 33.0795V33.0831ZM52.9183 37.9238C52.4411 36.4469 52.0841 34.6108 51.9165 32.4226C48.7508 35.9824 44.7546 38 40.8458 38C34.8751 38 30.8315 33.25 30.8279 26.232C30.8206 17.4433 36.8131 10.6793 46.3138 10.6793C49.4867 10.6793 50.1388 11.4087 55.0093 11.3978H58.0511V27.9267C58.0511 31.5445 58.2078 33.152 58.5283 34.6217L52.9219 37.9165L52.9183 37.9238Z" stroke="#CCF728" stroke-width="0.631374" mask="url(#path-1-inside-1_5789_109)"/>
<path d="M68.63 31.4719C70.4333 32.4335 72.9541 33.0359 75.6535 33.1157C79.0632 33.2246 81.3583 32.4843 81.3583 30.5901C81.3583 29.1459 80.1087 28.1226 77.6389 27.542L72.67 26.3772C65.3733 24.6681 62.4663 22.3457 62.4663 18.3541C62.4663 12.9037 67.9379 10.643 74.4951 10.643C77.8902 10.643 81.0595 11.2382 84.3126 12.8638L78.6807 16.1805C77.3292 15.7886 76.0506 15.5854 74.71 15.5382C71.2493 15.4257 69.0271 16.4853 69.0271 18.0747C69.0271 19.2976 70.3495 20.2809 72.5206 20.8035L77.3766 21.9792C85.0813 23.8335 87.9154 26.6457 87.9154 30.3615C87.9154 35.3655 82.6916 37.9855 75.7919 37.9855C71.5589 37.9855 66.8705 36.9985 63.3551 34.5709L68.63 31.4719Z" stroke="#CCF728" stroke-width="0.631374" mask="url(#path-1-inside-1_5789_109)"/>
<path d="M111.652 21.9574C111.452 18.1327 108.767 15.5346 104.629 15.5346C100.491 15.5346 97.6747 18.071 97.1319 21.9574H111.652ZM105.758 37.9528C96.6256 37.9528 90.4145 32.4408 90.4145 24.2907C90.4145 16.1406 96.4106 10.6938 104.56 10.6938C113.503 10.6938 118.986 17.6537 117.346 26.5151H97.2121C98.1191 30.4341 101.693 33.0867 106.487 33.0867C107.915 33.0867 109.248 32.8545 110.552 32.4553L115.867 35.5796C112.545 37.1727 109.157 37.9492 105.758 37.9492V37.9528Z" stroke="#CCF728" stroke-width="0.631374" mask="url(#path-1-inside-1_5789_109)"/>
<path d="M133.018 21.1917H137.138V21.8268H134.085V23.8335H137.138V24.4685H134.085V26.6602H137.138V27.2953H133.018V21.1917Z" stroke="#CCF728" stroke-width="0.631374" mask="url(#path-1-inside-1_5789_109)"/>
<path d="M140.537 24.2181L138.544 21.1917H139.761L140.854 22.9807C140.996 23.2093 141.131 23.4416 141.258 23.6738H141.473C141.604 23.4379 141.739 23.2093 141.877 22.9807L142.97 21.1917H144.187L142.194 24.2181L144.187 27.2953H142.97L141.907 25.5172C141.761 25.2704 141.608 25.0237 141.473 24.7769H141.258C141.123 25.0237 140.97 25.2704 140.825 25.5172L139.761 27.2953H138.544L140.537 24.2181Z" stroke="#CCF728" stroke-width="0.631374" mask="url(#path-1-inside-1_5789_109)"/>
<path d="M145.426 22.5053C145.426 21.5256 146.125 21.1409 148.085 21.1409C150.045 21.1409 150.73 21.5256 150.73 22.5053V23.4089H149.659V21.8304H146.493V26.6639H149.659V25.0854H150.73V25.9889C150.73 26.9687 150.041 27.3533 148.085 27.3533C146.129 27.3533 145.426 26.9687 145.426 25.9889V22.5053Z" stroke="#CCF728" stroke-width="0.631374" mask="url(#path-1-inside-1_5789_109)"/>
<path d="M152.642 21.1917H153.713V23.8081H156.766V21.1917H157.837V27.2953H156.766V24.4431H153.713V27.2953H152.642V21.1917Z" stroke="#CCF728" stroke-width="0.631374" mask="url(#path-1-inside-1_5789_109)"/>
<path d="M163.851 25.9635H160.846L160.405 27.2916H159.239L161.356 21.1881H163.338L165.454 27.2916H164.288L163.848 25.9635H163.851ZM163.644 25.3285L162.726 22.5307C162.645 22.2985 162.58 22.059 162.507 21.8231H162.19C162.117 22.0554 162.048 22.2949 161.972 22.5307L161.054 25.3285H163.644Z" stroke="#CCF728" stroke-width="0.631374" mask="url(#path-1-inside-1_5789_109)"/>
<path d="M166.86 21.1917H168.798L170.696 25.3212C170.9 25.7676 171.097 26.2103 171.286 26.6602H171.523V21.1917H172.503V27.2953H170.565L168.667 23.1658C168.463 22.7194 168.266 22.2767 168.077 21.8268H167.84V27.2953H166.86V21.1917Z" stroke="#CCF728" stroke-width="0.631374" mask="url(#path-1-inside-1_5789_109)"/>
<path d="M174.416 25.9708V22.509C174.416 21.522 175.115 21.1373 177.075 21.1373C179.035 21.1373 179.72 21.522 179.72 22.509V23.1621H178.649V21.8231H175.483V26.6566H178.649V24.8749H177.071V24.2399H179.716V27.2916H179.119L178.871 26.8417C178.408 27.1937 177.723 27.3424 176.9 27.3424C175.199 27.3424 174.412 26.9578 174.412 25.9708H174.416Z" stroke="#CCF728" stroke-width="0.631374" mask="url(#path-1-inside-1_5789_109)"/>
<path d="M181.69 21.1917H185.811V21.8268H182.758V23.8335H185.811V24.4685H182.758V26.6602H185.811V27.2953H181.69V21.1917Z" stroke="#CCF728" stroke-width="0.631374" mask="url(#path-1-inside-1_5789_109)"/>
</svg>
